<mxfile host="app.diagrams.net" modified="2024-03-11T03:31:17.639Z" agent="Mozilla/5.0 (Macintosh; Intel Mac OS X 10_15_7) AppleWebKit/537.36 (KHTML, like Gecko) Chrome/121.0.0.0 Safari/537.36" etag="1gmwukqSJCCUgdKYzvdU" version="24.0.3" type="github">
  <diagram name="第 1 页" id="trUa0e77cNQvAdWQq11L">
    <mxGraphModel dx="2261" dy="1915" grid="1" gridSize="10" guides="1" tooltips="1" connect="1" arrows="1" fold="1" page="1" pageScale="1" pageWidth="827" pageHeight="1169" math="0" shadow="0">
      <root>
        <mxCell id="0" />
        <mxCell id="1" parent="0" />
        <mxCell id="SECOmYTdWjYfmyhCN2TT-76" value="&lt;h1 style=&quot;margin-top: 0px;&quot;&gt;备注&lt;/h1&gt;&lt;p&gt;1.配送方式：只有PVC管、管件不允许快递，其他都可以选择快递&lt;/p&gt;&lt;p&gt;2.增加备件包：&lt;span style=&quot;background-color: initial; font-size: 7.5pt; font-family: AlibabaPuHuiTi-Regular;&quot;&gt;A&lt;/span&gt;&lt;span style=&quot;background-color: initial; font-size: 7.5pt; font-family: &amp;quot;Alibaba PuHuiTi&amp;quot;;&quot;&gt;品辅料包只能选择&lt;/span&gt;&lt;span style=&quot;background-color: initial; font-size: 7.5pt; font-family: AlibabaPuHuiTi-Regular;&quot;&gt;A&lt;/span&gt;&lt;span style=&quot;background-color: initial; font-size: 7.5pt; font-family: &amp;quot;Alibaba PuHuiTi&amp;quot;;&quot;&gt;类型辅料，&lt;/span&gt;&lt;span style=&quot;background-color: initial; font-size: 7.5pt; font-family: AlibabaPuHuiTi-Regular;&quot;&gt;B&lt;/span&gt;&lt;span style=&quot;background-color: initial; font-size: 7.5pt; font-family: &amp;quot;Alibaba PuHuiTi&amp;quot;;&quot;&gt;、&lt;/span&gt;&lt;span style=&quot;background-color: initial; font-size: 7.5pt; font-family: AlibabaPuHuiTi-Regular;&quot;&gt;C&lt;/span&gt;&lt;span style=&quot;background-color: initial; font-size: 7.5pt; font-family: &amp;quot;Alibaba PuHuiTi&amp;quot;;&quot;&gt;同理&lt;/span&gt;&lt;/p&gt;&lt;p&gt;&lt;span style=&quot;background-color: initial; font-size: 7.5pt; font-family: &amp;quot;Alibaba PuHuiTi&amp;quot;;&quot;&gt;3.购物车结算：&lt;/span&gt;&lt;span style=&quot;font-family: &amp;quot;Alibaba PuHuiTi&amp;quot;; font-size: 7.5pt; background-color: initial;&quot;&gt;既可以多选也可以多选&lt;/span&gt;&lt;span style=&quot;font-family: &amp;quot;Alibaba PuHuiTi&amp;quot;; font-size: 7.5pt; background-color: initial;&quot;&gt;店铺、商品都可&lt;/span&gt;&lt;/p&gt;&lt;br/&gt;&lt;br/&gt;&lt;div&gt;&lt;br/&gt;&lt;/div&gt;" style="text;html=1;whiteSpace=wrap;overflow=hidden;rounded=0;" vertex="1" parent="1">
          <mxGeometry x="490" y="-150" width="240" height="180" as="geometry" />
        </mxCell>
        <mxCell id="SECOmYTdWjYfmyhCN2TT-16" style="edgeStyle=orthogonalEdgeStyle;rounded=0;orthogonalLoop=1;jettySize=auto;html=1;exitX=0.5;exitY=1;exitDx=0;exitDy=0;entryX=0.5;entryY=0;entryDx=0;entryDy=0;" edge="1" parent="1" source="SECOmYTdWjYfmyhCN2TT-1" target="SECOmYTdWjYfmyhCN2TT-11">
          <mxGeometry relative="1" as="geometry" />
        </mxCell>
        <mxCell id="SECOmYTdWjYfmyhCN2TT-17" value="否" style="edgeLabel;html=1;align=center;verticalAlign=middle;resizable=0;points=[];" vertex="1" connectable="0" parent="SECOmYTdWjYfmyhCN2TT-16">
          <mxGeometry x="-0.4" relative="1" as="geometry">
            <mxPoint as="offset" />
          </mxGeometry>
        </mxCell>
        <mxCell id="SECOmYTdWjYfmyhCN2TT-19" style="edgeStyle=orthogonalEdgeStyle;rounded=0;orthogonalLoop=1;jettySize=auto;html=1;exitX=1;exitY=0.5;exitDx=0;exitDy=0;entryX=0;entryY=0.5;entryDx=0;entryDy=0;" edge="1" parent="1" source="SECOmYTdWjYfmyhCN2TT-1" target="SECOmYTdWjYfmyhCN2TT-18">
          <mxGeometry relative="1" as="geometry" />
        </mxCell>
        <mxCell id="SECOmYTdWjYfmyhCN2TT-20" value="是" style="edgeLabel;html=1;align=center;verticalAlign=middle;resizable=0;points=[];" vertex="1" connectable="0" parent="SECOmYTdWjYfmyhCN2TT-19">
          <mxGeometry x="0.1143" y="-1" relative="1" as="geometry">
            <mxPoint as="offset" />
          </mxGeometry>
        </mxCell>
        <mxCell id="SECOmYTdWjYfmyhCN2TT-1" value="&lt;div&gt;&lt;span style=&quot;mso-spacerun:&#39;yes&#39;;font-size:7.5pt;font-family:Alibaba PuHuiTi;color:rgb(48,48,48);&quot;&gt;是否需要增加物料&lt;/span&gt;&lt;/div&gt;" style="rhombus;whiteSpace=wrap;html=1;" vertex="1" parent="1">
          <mxGeometry x="340" y="390" width="150" height="50" as="geometry" />
        </mxCell>
        <mxCell id="SECOmYTdWjYfmyhCN2TT-12" style="edgeStyle=orthogonalEdgeStyle;rounded=0;orthogonalLoop=1;jettySize=auto;html=1;exitX=0.5;exitY=1;exitDx=0;exitDy=0;" edge="1" parent="1" source="SECOmYTdWjYfmyhCN2TT-2" target="SECOmYTdWjYfmyhCN2TT-3">
          <mxGeometry relative="1" as="geometry" />
        </mxCell>
        <mxCell id="SECOmYTdWjYfmyhCN2TT-2" value="&lt;div&gt;&lt;span style=&quot;mso-spacerun:&#39;yes&#39;;font-size:7.5pt;font-family:AlibabaPuHuiTi-Regular;color:rgb(48,48,48);&quot;&gt;M&lt;/span&gt;&lt;span style=&quot;mso-spacerun:&#39;yes&#39;;font-size:7.5pt;font-family:Alibaba PuHuiTi;color:rgb(48,48,48);&quot;&gt;中心选择仓库&lt;/span&gt;&lt;/div&gt;" style="rounded=0;whiteSpace=wrap;html=1;" vertex="1" parent="1">
          <mxGeometry x="365" y="100" width="100" height="40" as="geometry" />
        </mxCell>
        <mxCell id="SECOmYTdWjYfmyhCN2TT-13" style="edgeStyle=orthogonalEdgeStyle;rounded=0;orthogonalLoop=1;jettySize=auto;html=1;exitX=0.5;exitY=1;exitDx=0;exitDy=0;entryX=0.5;entryY=0;entryDx=0;entryDy=0;" edge="1" parent="1" source="SECOmYTdWjYfmyhCN2TT-3" target="SECOmYTdWjYfmyhCN2TT-5">
          <mxGeometry relative="1" as="geometry" />
        </mxCell>
        <mxCell id="SECOmYTdWjYfmyhCN2TT-3" value="&lt;div&gt;&lt;span style=&quot;mso-spacerun:&#39;yes&#39;;font-size:7.5pt;font-family:Alibaba PuHuiTi;color:rgb(48,48,48);&quot;&gt;进入辅料成套&lt;/span&gt;&lt;/div&gt;" style="rounded=0;whiteSpace=wrap;html=1;" vertex="1" parent="1">
          <mxGeometry x="365" y="160" width="100" height="40" as="geometry" />
        </mxCell>
        <mxCell id="SECOmYTdWjYfmyhCN2TT-14" style="edgeStyle=orthogonalEdgeStyle;rounded=0;orthogonalLoop=1;jettySize=auto;html=1;exitX=0.5;exitY=1;exitDx=0;exitDy=0;entryX=0.5;entryY=0;entryDx=0;entryDy=0;" edge="1" parent="1" source="SECOmYTdWjYfmyhCN2TT-5" target="SECOmYTdWjYfmyhCN2TT-8">
          <mxGeometry relative="1" as="geometry" />
        </mxCell>
        <mxCell id="SECOmYTdWjYfmyhCN2TT-5" value="&lt;font face=&quot;Alibaba PuHuiTi&quot; color=&quot;#303030&quot;&gt;&lt;span style=&quot;font-size: 10px;&quot;&gt;选择辅料A|B|C 版&lt;/span&gt;&lt;/font&gt;" style="rounded=0;whiteSpace=wrap;html=1;" vertex="1" parent="1">
          <mxGeometry x="365" y="220" width="100" height="40" as="geometry" />
        </mxCell>
        <mxCell id="SECOmYTdWjYfmyhCN2TT-15" style="edgeStyle=orthogonalEdgeStyle;rounded=0;orthogonalLoop=1;jettySize=auto;html=1;exitX=0.5;exitY=1;exitDx=0;exitDy=0;entryX=0.5;entryY=0;entryDx=0;entryDy=0;" edge="1" parent="1" source="SECOmYTdWjYfmyhCN2TT-8" target="SECOmYTdWjYfmyhCN2TT-1">
          <mxGeometry relative="1" as="geometry" />
        </mxCell>
        <mxCell id="SECOmYTdWjYfmyhCN2TT-8" value="&lt;font face=&quot;Alibaba PuHuiTi&quot; color=&quot;#303030&quot;&gt;&lt;span style=&quot;font-size: 10px;&quot;&gt;查看详情&lt;/span&gt;&lt;/font&gt;" style="rounded=0;whiteSpace=wrap;html=1;" vertex="1" parent="1">
          <mxGeometry x="365" y="280" width="100" height="40" as="geometry" />
        </mxCell>
        <mxCell id="SECOmYTdWjYfmyhCN2TT-9" value="&lt;div&gt;&lt;span style=&quot;mso-spacerun:&#39;yes&#39;;font-size:7.5pt;font-family:Alibaba PuHuiTi;color:rgb(48,48,48);&quot;&gt;详情列表有图片，&lt;/span&gt;&lt;span style=&quot;background-color: initial; color: rgb(48, 48, 48); font-family: &amp;quot;Alibaba PuHuiTi&amp;quot;; font-size: 7.5pt;&quot;&gt;点击图片可放大&lt;/span&gt;&lt;/div&gt;" style="whiteSpace=wrap;html=1;shape=mxgraph.basic.rectCallout;dx=10.8;dy=18;boundedLbl=1;" vertex="1" parent="1">
          <mxGeometry x="470" y="250" width="110" height="60" as="geometry" />
        </mxCell>
        <mxCell id="SECOmYTdWjYfmyhCN2TT-81" style="edgeStyle=orthogonalEdgeStyle;rounded=0;orthogonalLoop=1;jettySize=auto;html=1;exitX=1;exitY=0.5;exitDx=0;exitDy=0;entryX=0.5;entryY=0;entryDx=0;entryDy=0;" edge="1" parent="1" source="SECOmYTdWjYfmyhCN2TT-11" target="SECOmYTdWjYfmyhCN2TT-80">
          <mxGeometry relative="1" as="geometry" />
        </mxCell>
        <mxCell id="SECOmYTdWjYfmyhCN2TT-93" style="edgeStyle=orthogonalEdgeStyle;rounded=0;orthogonalLoop=1;jettySize=auto;html=1;exitX=0;exitY=0.5;exitDx=0;exitDy=0;entryX=1;entryY=0.5;entryDx=0;entryDy=0;" edge="1" parent="1" source="SECOmYTdWjYfmyhCN2TT-11" target="SECOmYTdWjYfmyhCN2TT-23">
          <mxGeometry relative="1" as="geometry" />
        </mxCell>
        <mxCell id="SECOmYTdWjYfmyhCN2TT-94" value="直接下单" style="edgeLabel;html=1;align=center;verticalAlign=middle;resizable=0;points=[];" vertex="1" connectable="0" parent="SECOmYTdWjYfmyhCN2TT-93">
          <mxGeometry x="-0.6405" y="2" relative="1" as="geometry">
            <mxPoint as="offset" />
          </mxGeometry>
        </mxCell>
        <mxCell id="SECOmYTdWjYfmyhCN2TT-11" value="&lt;div&gt;&lt;span style=&quot;mso-spacerun:&#39;yes&#39;;font-size:7.5pt;font-family:Alibaba PuHuiTi;color:rgb(48,48,48);&quot;&gt;加入购物车&lt;br&gt;&lt;/span&gt;&lt;/div&gt;&lt;div&gt;&lt;span style=&quot;mso-spacerun:&#39;yes&#39;;font-size:7.5pt;font-family:Alibaba PuHuiTi;color:rgb(48,48,48);&quot;&gt;或&lt;br&gt;&lt;/span&gt;&lt;/div&gt;&lt;div&gt;&lt;span style=&quot;mso-spacerun:&#39;yes&#39;;font-size:7.5pt;font-family:Alibaba PuHuiTi;color:rgb(48,48,48);&quot;&gt;直接下单&lt;/span&gt;&lt;/div&gt;" style="rhombus;whiteSpace=wrap;html=1;" vertex="1" parent="1">
          <mxGeometry x="340" y="470" width="150" height="50" as="geometry" />
        </mxCell>
        <mxCell id="SECOmYTdWjYfmyhCN2TT-21" style="edgeStyle=orthogonalEdgeStyle;rounded=0;orthogonalLoop=1;jettySize=auto;html=1;exitX=0.5;exitY=0;exitDx=0;exitDy=0;entryX=1;entryY=0.5;entryDx=0;entryDy=0;" edge="1" parent="1" source="SECOmYTdWjYfmyhCN2TT-18" target="SECOmYTdWjYfmyhCN2TT-8">
          <mxGeometry relative="1" as="geometry" />
        </mxCell>
        <mxCell id="SECOmYTdWjYfmyhCN2TT-18" value="&lt;div&gt;&lt;span style=&quot;mso-spacerun:&#39;yes&#39;;font-size:7.5pt;font-family:Alibaba PuHuiTi;color:rgb(48,48,48);&quot;&gt;点击增加备件包增加物料&lt;/span&gt;&lt;/div&gt;" style="rounded=0;whiteSpace=wrap;html=1;" vertex="1" parent="1">
          <mxGeometry x="560" y="397.5" width="120" height="35" as="geometry" />
        </mxCell>
        <mxCell id="SECOmYTdWjYfmyhCN2TT-30" value="" style="edgeStyle=orthogonalEdgeStyle;rounded=0;orthogonalLoop=1;jettySize=auto;html=1;" edge="1" parent="1" source="SECOmYTdWjYfmyhCN2TT-23" target="SECOmYTdWjYfmyhCN2TT-28">
          <mxGeometry relative="1" as="geometry" />
        </mxCell>
        <mxCell id="SECOmYTdWjYfmyhCN2TT-23" value="选择收货地址" style="rounded=0;whiteSpace=wrap;html=1;" vertex="1" parent="1">
          <mxGeometry x="177.5" y="-150" width="120" height="35" as="geometry" />
        </mxCell>
        <mxCell id="SECOmYTdWjYfmyhCN2TT-40" style="edgeStyle=orthogonalEdgeStyle;rounded=0;orthogonalLoop=1;jettySize=auto;html=1;entryX=0.5;entryY=0;entryDx=0;entryDy=0;exitX=0.5;exitY=1;exitDx=0;exitDy=0;" edge="1" parent="1" source="SECOmYTdWjYfmyhCN2TT-28" target="SECOmYTdWjYfmyhCN2TT-33">
          <mxGeometry relative="1" as="geometry">
            <mxPoint x="238" y="-70" as="sourcePoint" />
          </mxGeometry>
        </mxCell>
        <mxCell id="SECOmYTdWjYfmyhCN2TT-41" style="edgeStyle=orthogonalEdgeStyle;rounded=0;orthogonalLoop=1;jettySize=auto;html=1;exitX=0.5;exitY=1;exitDx=0;exitDy=0;entryX=0.5;entryY=0;entryDx=0;entryDy=0;" edge="1" parent="1" source="SECOmYTdWjYfmyhCN2TT-28" target="SECOmYTdWjYfmyhCN2TT-34">
          <mxGeometry relative="1" as="geometry">
            <Array as="points">
              <mxPoint x="55" y="-10" />
              <mxPoint x="55" y="-10" />
            </Array>
          </mxGeometry>
        </mxCell>
        <mxCell id="SECOmYTdWjYfmyhCN2TT-78" style="edgeStyle=orthogonalEdgeStyle;rounded=0;orthogonalLoop=1;jettySize=auto;html=1;exitX=0.46;exitY=1;exitDx=0;exitDy=0;entryX=0.5;entryY=0;entryDx=0;entryDy=0;exitPerimeter=0;" edge="1" parent="1" source="SECOmYTdWjYfmyhCN2TT-28" target="SECOmYTdWjYfmyhCN2TT-35">
          <mxGeometry relative="1" as="geometry">
            <Array as="points">
              <mxPoint x="55" y="-50" />
              <mxPoint x="55" y="30" />
              <mxPoint x="233" y="30" />
            </Array>
          </mxGeometry>
        </mxCell>
        <mxCell id="SECOmYTdWjYfmyhCN2TT-28" value="选择配送方式" style="rhombus;whiteSpace=wrap;html=1;" vertex="1" parent="1">
          <mxGeometry x="-7.5" y="-50" width="125" height="60" as="geometry" />
        </mxCell>
        <mxCell id="SECOmYTdWjYfmyhCN2TT-47" value="" style="edgeStyle=orthogonalEdgeStyle;rounded=0;orthogonalLoop=1;jettySize=auto;html=1;entryX=0.5;entryY=0;entryDx=0;entryDy=0;" edge="1" parent="1" source="SECOmYTdWjYfmyhCN2TT-32" target="SECOmYTdWjYfmyhCN2TT-48">
          <mxGeometry relative="1" as="geometry">
            <mxPoint x="55" y="385" as="targetPoint" />
          </mxGeometry>
        </mxCell>
        <mxCell id="SECOmYTdWjYfmyhCN2TT-32" value="选择优惠券" style="rhombus;whiteSpace=wrap;html=1;" vertex="1" parent="1">
          <mxGeometry x="-10" y="270" width="130" height="60" as="geometry" />
        </mxCell>
        <mxCell id="SECOmYTdWjYfmyhCN2TT-43" style="edgeStyle=orthogonalEdgeStyle;rounded=0;orthogonalLoop=1;jettySize=auto;html=1;exitX=0.5;exitY=1;exitDx=0;exitDy=0;entryX=0.5;entryY=0;entryDx=0;entryDy=0;" edge="1" parent="1" source="SECOmYTdWjYfmyhCN2TT-33" target="SECOmYTdWjYfmyhCN2TT-32">
          <mxGeometry relative="1" as="geometry" />
        </mxCell>
        <mxCell id="SECOmYTdWjYfmyhCN2TT-33" value="&lt;div&gt;&lt;span style=&quot;mso-spacerun:&#39;yes&#39;;font-size:7.5pt;font-family:Alibaba PuHuiTi;color:rgb(48,48,48);&quot;&gt;自提：运费&lt;/span&gt;&lt;span style=&quot;mso-spacerun:&#39;yes&#39;;font-size:7.5pt;font-family:AlibabaPuHuiTi-Regular;color:rgb(48,48,48);&quot;&gt;=0&lt;/span&gt;&lt;/div&gt;" style="shape=process;whiteSpace=wrap;html=1;backgroundOutline=1;" vertex="1" parent="1">
          <mxGeometry x="-190" y="110" width="120" height="60" as="geometry" />
        </mxCell>
        <mxCell id="SECOmYTdWjYfmyhCN2TT-45" style="edgeStyle=orthogonalEdgeStyle;rounded=0;orthogonalLoop=1;jettySize=auto;html=1;exitX=0.5;exitY=1;exitDx=0;exitDy=0;entryX=0.5;entryY=0;entryDx=0;entryDy=0;" edge="1" parent="1" source="SECOmYTdWjYfmyhCN2TT-34" target="SECOmYTdWjYfmyhCN2TT-32">
          <mxGeometry relative="1" as="geometry" />
        </mxCell>
        <mxCell id="SECOmYTdWjYfmyhCN2TT-34" value="&lt;div&gt;&lt;span style=&quot;mso-spacerun:&#39;yes&#39;;font-size:7.5pt;font-family:Alibaba PuHuiTi;color:rgb(48,48,48);&quot;&gt;小金坞物流：&lt;/span&gt;&lt;/div&gt;&lt;div&gt;&lt;span style=&quot;mso-spacerun:&#39;yes&#39;;font-size:7.5pt;font-family:Alibaba PuHuiTi;color:rgb(48,48,48);&quot;&gt;可根据车型&lt;/span&gt;&lt;span style=&quot;color: rgb(48, 48, 48); font-family: AlibabaPuHuiTi-Regular; font-size: 7.5pt; background-color: initial;&quot;&gt;&amp;amp;&lt;/span&gt;&lt;span style=&quot;background-color: initial; font-size: 7.5pt; font-family: &amp;quot;Alibaba PuHuiTi&amp;quot;; color: rgb(48, 48, 48);&quot;&gt;距离&lt;/span&gt;&lt;span style=&quot;background-color: initial; font-size: 7.5pt; color: rgb(48, 48, 48);&quot;&gt;&lt;font face=&quot;AlibabaPuHuiTi-Regular&quot;&gt;计算&lt;/font&gt;&lt;/span&gt;&lt;span style=&quot;background-color: initial; font-size: 7.5pt; font-family: &amp;quot;Alibaba PuHuiTi&amp;quot;; color: rgb(48, 48, 48);&quot;&gt;运费&lt;/span&gt;&lt;/div&gt;" style="shape=process;whiteSpace=wrap;html=1;backgroundOutline=1;" vertex="1" parent="1">
          <mxGeometry x="-20" y="110" width="150" height="60" as="geometry" />
        </mxCell>
        <mxCell id="SECOmYTdWjYfmyhCN2TT-44" style="edgeStyle=orthogonalEdgeStyle;rounded=0;orthogonalLoop=1;jettySize=auto;html=1;exitX=0.5;exitY=1;exitDx=0;exitDy=0;entryX=0.5;entryY=0;entryDx=0;entryDy=0;" edge="1" parent="1" source="SECOmYTdWjYfmyhCN2TT-35" target="SECOmYTdWjYfmyhCN2TT-32">
          <mxGeometry relative="1" as="geometry" />
        </mxCell>
        <mxCell id="SECOmYTdWjYfmyhCN2TT-35" value="&lt;div&gt;&lt;span style=&quot;mso-spacerun:&#39;yes&#39;;font-size:7.5pt;font-family:Alibaba PuHuiTi;color:rgb(48,48,48);&quot;&gt;快递配送：&lt;/span&gt;&lt;/div&gt;&lt;div&gt;&lt;span style=&quot;mso-spacerun:&#39;yes&#39;;font-size:7.5pt;font-family:Alibaba PuHuiTi;color:rgb(48,48,48);&quot;&gt;根据快递公司模&lt;/span&gt;&lt;span style=&quot;mso-spacerun:&#39;yes&#39;;font-size:7.5pt;font-family:Alibaba PuHuiTi;color:rgb(48,48,48);&quot;&gt;板设置&amp;nbsp;&lt;/span&gt;&lt;/div&gt;" style="shape=process;whiteSpace=wrap;html=1;backgroundOutline=1;" vertex="1" parent="1">
          <mxGeometry x="160" y="110" width="145" height="60" as="geometry" />
        </mxCell>
        <mxCell id="SECOmYTdWjYfmyhCN2TT-38" style="edgeStyle=none;rounded=0;orthogonalLoop=1;jettySize=auto;html=1;exitX=0;exitY=0.5;exitDx=0;exitDy=0;" edge="1" parent="1" source="SECOmYTdWjYfmyhCN2TT-28" target="SECOmYTdWjYfmyhCN2TT-28">
          <mxGeometry relative="1" as="geometry" />
        </mxCell>
        <mxCell id="SECOmYTdWjYfmyhCN2TT-61" style="edgeStyle=orthogonalEdgeStyle;rounded=0;orthogonalLoop=1;jettySize=auto;html=1;exitX=0.5;exitY=1;exitDx=0;exitDy=0;entryX=0.5;entryY=0;entryDx=0;entryDy=0;" edge="1" parent="1" source="SECOmYTdWjYfmyhCN2TT-48" target="SECOmYTdWjYfmyhCN2TT-50">
          <mxGeometry relative="1" as="geometry">
            <Array as="points">
              <mxPoint x="55" y="460" />
              <mxPoint x="-70" y="460" />
            </Array>
          </mxGeometry>
        </mxCell>
        <mxCell id="SECOmYTdWjYfmyhCN2TT-62" style="edgeStyle=orthogonalEdgeStyle;rounded=0;orthogonalLoop=1;jettySize=auto;html=1;exitX=0.5;exitY=1;exitDx=0;exitDy=0;entryX=0.5;entryY=0;entryDx=0;entryDy=0;" edge="1" parent="1" source="SECOmYTdWjYfmyhCN2TT-48" target="SECOmYTdWjYfmyhCN2TT-51">
          <mxGeometry relative="1" as="geometry">
            <Array as="points">
              <mxPoint x="55" y="460" />
              <mxPoint x="180" y="460" />
              <mxPoint x="180" y="500" />
            </Array>
          </mxGeometry>
        </mxCell>
        <mxCell id="SECOmYTdWjYfmyhCN2TT-48" value="选择支付方式" style="rhombus;whiteSpace=wrap;html=1;" vertex="1" parent="1">
          <mxGeometry x="-10" y="375" width="130" height="65" as="geometry" />
        </mxCell>
        <mxCell id="SECOmYTdWjYfmyhCN2TT-64" style="edgeStyle=orthogonalEdgeStyle;rounded=0;orthogonalLoop=1;jettySize=auto;html=1;exitX=0.5;exitY=1;exitDx=0;exitDy=0;entryX=0;entryY=0.5;entryDx=0;entryDy=0;" edge="1" parent="1" source="SECOmYTdWjYfmyhCN2TT-50" target="SECOmYTdWjYfmyhCN2TT-52">
          <mxGeometry relative="1" as="geometry" />
        </mxCell>
        <mxCell id="SECOmYTdWjYfmyhCN2TT-50" value="移动端支付" style="rounded=0;whiteSpace=wrap;html=1;" vertex="1" parent="1">
          <mxGeometry x="-130" y="510" width="120" height="60" as="geometry" />
        </mxCell>
        <mxCell id="SECOmYTdWjYfmyhCN2TT-63" style="edgeStyle=orthogonalEdgeStyle;rounded=0;orthogonalLoop=1;jettySize=auto;html=1;exitX=0.5;exitY=1;exitDx=0;exitDy=0;entryX=1;entryY=0.5;entryDx=0;entryDy=0;" edge="1" parent="1" source="SECOmYTdWjYfmyhCN2TT-51" target="SECOmYTdWjYfmyhCN2TT-52">
          <mxGeometry relative="1" as="geometry" />
        </mxCell>
        <mxCell id="SECOmYTdWjYfmyhCN2TT-51" value="对公打款：打开PC端" style="rounded=0;whiteSpace=wrap;html=1;" vertex="1" parent="1">
          <mxGeometry x="120" y="510" width="120" height="60" as="geometry" />
        </mxCell>
        <mxCell id="SECOmYTdWjYfmyhCN2TT-65" value="未完成" style="edgeStyle=orthogonalEdgeStyle;rounded=0;orthogonalLoop=1;jettySize=auto;html=1;exitX=0.5;exitY=1;exitDx=0;exitDy=0;entryX=0.5;entryY=0;entryDx=0;entryDy=0;" edge="1" parent="1" source="SECOmYTdWjYfmyhCN2TT-52" target="SECOmYTdWjYfmyhCN2TT-53">
          <mxGeometry relative="1" as="geometry" />
        </mxCell>
        <mxCell id="SECOmYTdWjYfmyhCN2TT-67" style="edgeStyle=orthogonalEdgeStyle;rounded=0;orthogonalLoop=1;jettySize=auto;html=1;exitX=0.5;exitY=1;exitDx=0;exitDy=0;entryX=0.5;entryY=0;entryDx=0;entryDy=0;" edge="1" parent="1" source="SECOmYTdWjYfmyhCN2TT-52" target="SECOmYTdWjYfmyhCN2TT-56">
          <mxGeometry relative="1" as="geometry" />
        </mxCell>
        <mxCell id="SECOmYTdWjYfmyhCN2TT-68" value="已支付" style="edgeLabel;html=1;align=center;verticalAlign=middle;resizable=0;points=[];" vertex="1" connectable="0" parent="SECOmYTdWjYfmyhCN2TT-67">
          <mxGeometry x="0.0257" relative="1" as="geometry">
            <mxPoint x="1" as="offset" />
          </mxGeometry>
        </mxCell>
        <mxCell id="SECOmYTdWjYfmyhCN2TT-52" value="是否支付完成" style="rhombus;whiteSpace=wrap;html=1;" vertex="1" parent="1">
          <mxGeometry x="-12.5" y="600" width="130" height="65" as="geometry" />
        </mxCell>
        <mxCell id="SECOmYTdWjYfmyhCN2TT-66" style="edgeStyle=orthogonalEdgeStyle;rounded=0;orthogonalLoop=1;jettySize=auto;html=1;exitX=0;exitY=0.5;exitDx=0;exitDy=0;entryX=0;entryY=0.5;entryDx=0;entryDy=0;" edge="1" parent="1" source="SECOmYTdWjYfmyhCN2TT-53" target="SECOmYTdWjYfmyhCN2TT-48">
          <mxGeometry relative="1" as="geometry">
            <Array as="points">
              <mxPoint x="-150" y="775" />
              <mxPoint x="-150" y="408" />
            </Array>
          </mxGeometry>
        </mxCell>
        <mxCell id="SECOmYTdWjYfmyhCN2TT-53" value="后台运营改价" style="rounded=0;whiteSpace=wrap;html=1;" vertex="1" parent="1">
          <mxGeometry x="-7.5" y="745" width="120" height="60" as="geometry" />
        </mxCell>
        <mxCell id="SECOmYTdWjYfmyhCN2TT-71" style="edgeStyle=orthogonalEdgeStyle;rounded=0;orthogonalLoop=1;jettySize=auto;html=1;exitX=0.5;exitY=1;exitDx=0;exitDy=0;entryX=0.5;entryY=0;entryDx=0;entryDy=0;" edge="1" parent="1" source="SECOmYTdWjYfmyhCN2TT-55" target="SECOmYTdWjYfmyhCN2TT-59">
          <mxGeometry relative="1" as="geometry" />
        </mxCell>
        <mxCell id="SECOmYTdWjYfmyhCN2TT-55" value="运营确认" style="rounded=0;whiteSpace=wrap;html=1;" vertex="1" parent="1">
          <mxGeometry x="155" y="880" width="120" height="40" as="geometry" />
        </mxCell>
        <mxCell id="SECOmYTdWjYfmyhCN2TT-69" style="edgeStyle=orthogonalEdgeStyle;rounded=0;orthogonalLoop=1;jettySize=auto;html=1;exitX=0.5;exitY=1;exitDx=0;exitDy=0;entryX=0.5;entryY=0;entryDx=0;entryDy=0;" edge="1" parent="1" source="SECOmYTdWjYfmyhCN2TT-56" target="SECOmYTdWjYfmyhCN2TT-55">
          <mxGeometry relative="1" as="geometry" />
        </mxCell>
        <mxCell id="SECOmYTdWjYfmyhCN2TT-70" value="库存不足" style="edgeLabel;html=1;align=center;verticalAlign=middle;resizable=0;points=[];" vertex="1" connectable="0" parent="SECOmYTdWjYfmyhCN2TT-69">
          <mxGeometry x="-0.0333" y="1" relative="1" as="geometry">
            <mxPoint as="offset" />
          </mxGeometry>
        </mxCell>
        <mxCell id="SECOmYTdWjYfmyhCN2TT-73" style="edgeStyle=orthogonalEdgeStyle;rounded=0;orthogonalLoop=1;jettySize=auto;html=1;exitX=1;exitY=0.5;exitDx=0;exitDy=0;entryX=0;entryY=0.5;entryDx=0;entryDy=0;" edge="1" parent="1" source="SECOmYTdWjYfmyhCN2TT-56" target="SECOmYTdWjYfmyhCN2TT-75">
          <mxGeometry relative="1" as="geometry">
            <mxPoint x="400" y="775" as="targetPoint" />
          </mxGeometry>
        </mxCell>
        <mxCell id="SECOmYTdWjYfmyhCN2TT-56" value="库存是否充足" style="rhombus;whiteSpace=wrap;html=1;" vertex="1" parent="1">
          <mxGeometry x="150" y="755" width="130" height="65" as="geometry" />
        </mxCell>
        <mxCell id="SECOmYTdWjYfmyhCN2TT-58" style="edgeStyle=orthogonalEdgeStyle;rounded=0;orthogonalLoop=1;jettySize=auto;html=1;exitX=0.5;exitY=1;exitDx=0;exitDy=0;" edge="1" parent="1" source="SECOmYTdWjYfmyhCN2TT-55" target="SECOmYTdWjYfmyhCN2TT-55">
          <mxGeometry relative="1" as="geometry" />
        </mxCell>
        <mxCell id="SECOmYTdWjYfmyhCN2TT-72" style="edgeStyle=orthogonalEdgeStyle;rounded=0;orthogonalLoop=1;jettySize=auto;html=1;exitX=0.5;exitY=1;exitDx=0;exitDy=0;entryX=0.5;entryY=0;entryDx=0;entryDy=0;" edge="1" parent="1" source="SECOmYTdWjYfmyhCN2TT-59" target="SECOmYTdWjYfmyhCN2TT-60">
          <mxGeometry relative="1" as="geometry">
            <Array as="points">
              <mxPoint x="215" y="1035" />
              <mxPoint x="213" y="1035" />
            </Array>
          </mxGeometry>
        </mxCell>
        <mxCell id="SECOmYTdWjYfmyhCN2TT-59" value="（小金坞系统）采购做入库单" style="rounded=0;whiteSpace=wrap;html=1;" vertex="1" parent="1">
          <mxGeometry x="155" y="960" width="120" height="50" as="geometry" />
        </mxCell>
        <mxCell id="SECOmYTdWjYfmyhCN2TT-74" style="edgeStyle=orthogonalEdgeStyle;rounded=0;orthogonalLoop=1;jettySize=auto;html=1;exitX=0.5;exitY=1;exitDx=0;exitDy=0;entryX=0.5;entryY=1;entryDx=0;entryDy=0;" edge="1" parent="1" source="SECOmYTdWjYfmyhCN2TT-60" target="SECOmYTdWjYfmyhCN2TT-75">
          <mxGeometry relative="1" as="geometry">
            <mxPoint x="460" y="805" as="targetPoint" />
          </mxGeometry>
        </mxCell>
        <mxCell id="SECOmYTdWjYfmyhCN2TT-60" value="采购入库成功后点确认（光小宝）" style="rounded=0;whiteSpace=wrap;html=1;" vertex="1" parent="1">
          <mxGeometry x="150" y="1080" width="125" height="50" as="geometry" />
        </mxCell>
        <mxCell id="SECOmYTdWjYfmyhCN2TT-75" value="推动出库单到小金坞" style="ellipse;whiteSpace=wrap;html=1;" vertex="1" parent="1">
          <mxGeometry x="400" y="750" width="120" height="50" as="geometry" />
        </mxCell>
        <mxCell id="SECOmYTdWjYfmyhCN2TT-86" style="edgeStyle=orthogonalEdgeStyle;rounded=0;orthogonalLoop=1;jettySize=auto;html=1;exitX=0.5;exitY=1;exitDx=0;exitDy=0;entryX=0.5;entryY=0;entryDx=0;entryDy=0;" edge="1" parent="1" source="SECOmYTdWjYfmyhCN2TT-80" target="SECOmYTdWjYfmyhCN2TT-82">
          <mxGeometry relative="1" as="geometry" />
        </mxCell>
        <mxCell id="SECOmYTdWjYfmyhCN2TT-80" value="通过M中心上方按钮进入购物车界面" style="rounded=0;whiteSpace=wrap;html=1;" vertex="1" parent="1">
          <mxGeometry x="875" y="102.5" width="120" height="60" as="geometry" />
        </mxCell>
        <mxCell id="SECOmYTdWjYfmyhCN2TT-87" style="edgeStyle=orthogonalEdgeStyle;rounded=0;orthogonalLoop=1;jettySize=auto;html=1;exitX=0.5;exitY=1;exitDx=0;exitDy=0;entryX=0.5;entryY=0;entryDx=0;entryDy=0;" edge="1" parent="1" source="SECOmYTdWjYfmyhCN2TT-82" target="SECOmYTdWjYfmyhCN2TT-83">
          <mxGeometry relative="1" as="geometry" />
        </mxCell>
        <mxCell id="SECOmYTdWjYfmyhCN2TT-82" value="辅料A版、B版、C版作为Title" style="rounded=0;whiteSpace=wrap;html=1;" vertex="1" parent="1">
          <mxGeometry x="875" y="212.5" width="120" height="60" as="geometry" />
        </mxCell>
        <mxCell id="SECOmYTdWjYfmyhCN2TT-88" style="edgeStyle=orthogonalEdgeStyle;rounded=0;orthogonalLoop=1;jettySize=auto;html=1;exitX=1;exitY=0.5;exitDx=0;exitDy=0;entryX=0;entryY=0.5;entryDx=0;entryDy=0;" edge="1" parent="1" source="SECOmYTdWjYfmyhCN2TT-83" target="SECOmYTdWjYfmyhCN2TT-84">
          <mxGeometry relative="1" as="geometry" />
        </mxCell>
        <mxCell id="SECOmYTdWjYfmyhCN2TT-83" value="&lt;div&gt;&lt;span style=&quot;mso-spacerun:&#39;yes&#39;;font-size:7.5pt;font-family:Alibaba PuHuiTi;color:rgb(48,48,48);&quot;&gt;可增、减在购物车中商品数量；一&lt;/span&gt;&lt;span style=&quot;color: rgb(48, 48, 48); font-family: &amp;quot;Alibaba PuHuiTi&amp;quot;; font-size: 7.5pt; background-color: initial;&quot;&gt;键回到选类型界面&amp;nbsp;&lt;/span&gt;&lt;/div&gt;" style="rounded=0;whiteSpace=wrap;html=1;" vertex="1" parent="1">
          <mxGeometry x="870" y="322.5" width="130" height="60" as="geometry" />
        </mxCell>
        <mxCell id="SECOmYTdWjYfmyhCN2TT-89" style="edgeStyle=orthogonalEdgeStyle;rounded=0;orthogonalLoop=1;jettySize=auto;html=1;exitX=0.5;exitY=1;exitDx=0;exitDy=0;entryX=0.5;entryY=0;entryDx=0;entryDy=0;" edge="1" parent="1" source="SECOmYTdWjYfmyhCN2TT-84" target="SECOmYTdWjYfmyhCN2TT-85">
          <mxGeometry relative="1" as="geometry" />
        </mxCell>
        <mxCell id="SECOmYTdWjYfmyhCN2TT-92" value="否" style="edgeLabel;html=1;align=center;verticalAlign=middle;resizable=0;points=[];" vertex="1" connectable="0" parent="SECOmYTdWjYfmyhCN2TT-89">
          <mxGeometry x="-0.1758" y="1" relative="1" as="geometry">
            <mxPoint as="offset" />
          </mxGeometry>
        </mxCell>
        <mxCell id="SECOmYTdWjYfmyhCN2TT-90" style="edgeStyle=orthogonalEdgeStyle;rounded=0;orthogonalLoop=1;jettySize=auto;html=1;exitX=0.5;exitY=0;exitDx=0;exitDy=0;entryX=0.5;entryY=0;entryDx=0;entryDy=0;" edge="1" parent="1" source="SECOmYTdWjYfmyhCN2TT-84" target="SECOmYTdWjYfmyhCN2TT-23">
          <mxGeometry relative="1" as="geometry">
            <mxPoint x="920" y="-60" as="targetPoint" />
          </mxGeometry>
        </mxCell>
        <mxCell id="SECOmYTdWjYfmyhCN2TT-91" value="结算" style="edgeLabel;html=1;align=center;verticalAlign=middle;resizable=0;points=[];" vertex="1" connectable="0" parent="SECOmYTdWjYfmyhCN2TT-90">
          <mxGeometry x="-0.9314" y="-1" relative="1" as="geometry">
            <mxPoint as="offset" />
          </mxGeometry>
        </mxCell>
        <mxCell id="SECOmYTdWjYfmyhCN2TT-84" value="结算" style="rhombus;whiteSpace=wrap;html=1;" vertex="1" parent="1">
          <mxGeometry x="1065" y="327.5" width="80" height="50" as="geometry" />
        </mxCell>
        <mxCell id="SECOmYTdWjYfmyhCN2TT-85" value="&lt;div&gt;&lt;span style=&quot;mso-spacerun:&#39;yes&#39;;font-size:7.5pt;font-family:Alibaba PuHuiTi;color:rgb(48,48,48);&quot;&gt;返回继续浏览&lt;/span&gt;&lt;/div&gt;" style="ellipse;whiteSpace=wrap;html=1;" vertex="1" parent="1">
          <mxGeometry x="1045" y="460" width="120" height="60" as="geometry" />
        </mxCell>
      </root>
    </mxGraphModel>
  </diagram>
</mxfile>
